<svg xmlns:xlink="http://www.w3.org/1999/xlink" xmlns="http://www.w3.org/2000/svg" class="w-full h-auto" viewBox="0 0 400 300" preserveAspectRatio="xMidYMid meet"><defs><clipPath id="plot-area-clip"><rect x="10" y="5" width="335" height="255"/></clipPath></defs><defs><clipPath id="grid-area-clip"><path d="M345,5L345,260L10,260L10,251.362L26.75,248.891L43.5,245.787L60.25,241.907L77,237.076L93.75,231.089L110.5,224.222L127.25,216.45L144,207.202L160.75,196.236L177.5,183.275L194.25,168.004L211,150.058L227.75,129.023L244.5,104.423L261.25,75.712L278,42.258L294.032,5"/></clipPath></defs><g clip-path="url(#grid-area-clip)"><g class="grid vertical-grid" transform="translate(0,260)" fill="none" font-size="10" font-family="sans-serif" text-anchor="middle"><path class="domain" stroke="currentColor" d="M10.5,-255V0.5H345.5V-255"/><g class="tick" opacity="1" transform="translate(10.5,0)"><line stroke="#aaaaaa" y2="-255" stroke-width="0.5"/><text fill="currentColor" y="3" dy="0.71em"/></g><g class="tick" opacity="1" transform="translate(40.95454545454545,0)"><line stroke="#aaaaaa" y2="-255" stroke-width="0.5"/><text fill="currentColor" y="3" dy="0.71em"/></g><g class="tick" opacity="1" transform="translate(71.4090909090909,0)"><line stroke="#aaaaaa" y2="-255" stroke-width="0.5"/><text fill="currentColor" y="3" dy="0.71em"/></g><g class="tick" opacity="1" transform="translate(101.86363636363635,0)"><line stroke="#aaaaaa" y2="-255" stroke-width="0.5"/><text fill="currentColor" y="3" dy="0.71em"/></g><g class="tick" opacity="1" transform="translate(132.3181818181818,0)"><line stroke="#aaaaaa" y2="-255" stroke-width="0.5"/><text fill="currentColor" y="3" dy="0.71em"/></g><g class="tick" opacity="1" transform="translate(162.77272727272728,0)"><line stroke="#aaaaaa" y2="-255" stroke-width="0.5"/><text fill="currentColor" y="3" dy="0.71em"/></g><g class="tick" opacity="1" transform="translate(193.2272727272727,0)"><line stroke="#aaaaaa" y2="-255" stroke-width="0.5"/><text fill="currentColor" y="3" dy="0.71em"/></g><g class="tick" opacity="1" transform="translate(223.68181818181816,0)"><line stroke="#aaaaaa" y2="-255" stroke-width="0.5"/><text fill="currentColor" y="3" dy="0.71em"/></g><g class="tick" opacity="1" transform="translate(254.13636363636363,0)"><line stroke="#aaaaaa" y2="-255" stroke-width="0.5"/><text fill="currentColor" y="3" dy="0.71em"/></g><g class="tick" opacity="1" transform="translate(284.5909090909091,0)"><line stroke="#aaaaaa" y2="-255" stroke-width="0.5"/><text fill="currentColor" y="3" dy="0.71em"/></g><g class="tick" opacity="1" transform="translate(315.04545454545456,0)"><line stroke="#aaaaaa" y2="-255" stroke-width="0.5"/><text fill="currentColor" y="3" dy="0.71em"/></g><g class="tick" opacity="1" transform="translate(345.5,0)"><line stroke="#aaaaaa" y2="-255" stroke-width="0.5"/><text fill="currentColor" y="3" dy="0.71em"/></g></g><g class="grid horizontal-grid" transform="translate(345,0)" fill="none" font-size="10" font-family="sans-serif" text-anchor="start"><path class="domain" stroke="currentColor" d="M-335,260.5H0.5V5.5H-335"/><g class="tick" opacity="1" transform="translate(0,260.5)"><line stroke="#aaaaaa" x2="-335" stroke-width="0.5"/><text fill="currentColor" x="3" dy="0.32em"/></g><g class="tick" opacity="1" transform="translate(0,243.5)"><line stroke="#aaaaaa" x2="-335" stroke-width="0.5"/><text fill="currentColor" x="3" dy="0.32em"/></g><g class="tick" opacity="1" transform="translate(0,226.5)"><line stroke="#aaaaaa" x2="-335" stroke-width="0.5"/><text fill="currentColor" x="3" dy="0.32em"/></g><g class="tick" opacity="1" transform="translate(0,209.5)"><line stroke="#aaaaaa" x2="-335" stroke-width="0.5"/><text fill="currentColor" x="3" dy="0.32em"/></g><g class="tick" opacity="1" transform="translate(0,192.50000000000003)"><line stroke="#aaaaaa" x2="-335" stroke-width="0.5"/><text fill="currentColor" x="3" dy="0.32em"/></g><g class="tick" opacity="1" transform="translate(0,175.49999999999997)"><line stroke="#aaaaaa" x2="-335" stroke-width="0.5"/><text fill="currentColor" x="3" dy="0.32em"/></g><g class="tick" opacity="1" transform="translate(0,158.5)"><line stroke="#aaaaaa" x2="-335" stroke-width="0.5"/><text fill="currentColor" x="3" dy="0.32em"/></g><g class="tick" opacity="1" transform="translate(0,141.5)"><line stroke="#aaaaaa" x2="-335" stroke-width="0.5"/><text fill="currentColor" x="3" dy="0.32em"/></g><g class="tick" opacity="1" transform="translate(0,124.5)"><line stroke="#aaaaaa" x2="-335" stroke-width="0.5"/><text fill="currentColor" x="3" dy="0.32em"/></g><g class="tick" opacity="1" transform="translate(0,107.5)"><line stroke="#aaaaaa" x2="-335" stroke-width="0.5"/><text fill="currentColor" x="3" dy="0.32em"/></g><g class="tick" opacity="1" transform="translate(0,90.49999999999997)"><line stroke="#aaaaaa" x2="-335" stroke-width="0.5"/><text fill="currentColor" x="3" dy="0.32em"/></g><g class="tick" opacity="1" transform="translate(0,73.50000000000001)"><line stroke="#aaaaaa" x2="-335" stroke-width="0.5"/><text fill="currentColor" x="3" dy="0.32em"/></g><g class="tick" opacity="1" transform="translate(0,56.499999999999986)"><line stroke="#aaaaaa" x2="-335" stroke-width="0.5"/><text fill="currentColor" x="3" dy="0.32em"/></g><g class="tick" opacity="1" transform="translate(0,39.49999999999999)"><line stroke="#aaaaaa" x2="-335" stroke-width="0.5"/><text fill="currentColor" x="3" dy="0.32em"/></g><g class="tick" opacity="1" transform="translate(0,22.499999999999996)"><line stroke="#aaaaaa" x2="-335" stroke-width="0.5"/><text fill="currentColor" x="3" dy="0.32em"/></g><g class="tick" opacity="1" transform="translate(0,5.5)"><line stroke="#aaaaaa" x2="-335" stroke-width="0.5"/><text fill="currentColor" x="3" dy="0.32em"/></g></g><g class="grid minor-vertical-grid" transform="translate(0,260)" fill="none" font-size="10" font-family="sans-serif" text-anchor="middle"><path class="domain" stroke="currentColor" d="M10.5,-255V0.5H345.5V-255"/><g class="tick" opacity="1" transform="translate(16.59090909090909,0)"><line stroke="#cccccc" y2="-255" stroke-width="0.3"/><text fill="currentColor" y="3" dy="0.71em"/></g><g class="tick" opacity="1" transform="translate(22.68181818181818,0)"><line stroke="#cccccc" y2="-255" stroke-width="0.3"/><text fill="currentColor" y="3" dy="0.71em"/></g><g class="tick" opacity="1" transform="translate(28.772727272727273,0)"><line stroke="#cccccc" y2="-255" stroke-width="0.3"/><text fill="currentColor" y="3" dy="0.71em"/></g><g class="tick" opacity="1" transform="translate(34.86363636363636,0)"><line stroke="#cccccc" y2="-255" stroke-width="0.3"/><text fill="currentColor" y="3" dy="0.71em"/></g><g class="tick" opacity="1" transform="translate(47.04545454545454,0)"><line stroke="#cccccc" y2="-255" stroke-width="0.3"/><text fill="currentColor" y="3" dy="0.71em"/></g><g class="tick" opacity="1" transform="translate(53.13636363636363,0)"><line stroke="#cccccc" y2="-255" stroke-width="0.3"/><text fill="currentColor" y="3" dy="0.71em"/></g><g class="tick" opacity="1" transform="translate(59.22727272727273,0)"><line stroke="#cccccc" y2="-255" stroke-width="0.3"/><text fill="currentColor" y="3" dy="0.71em"/></g><g class="tick" opacity="1" transform="translate(65.31818181818181,0)"><line stroke="#cccccc" y2="-255" stroke-width="0.3"/><text fill="currentColor" y="3" dy="0.71em"/></g><g class="tick" opacity="1" transform="translate(77.5,0)"><line stroke="#cccccc" y2="-255" stroke-width="0.3"/><text fill="currentColor" y="3" dy="0.71em"/></g><g class="tick" opacity="1" transform="translate(83.59090909090908,0)"><line stroke="#cccccc" y2="-255" stroke-width="0.3"/><text fill="currentColor" y="3" dy="0.71em"/></g><g class="tick" opacity="1" transform="translate(89.68181818181819,0)"><line stroke="#cccccc" y2="-255" stroke-width="0.3"/><text fill="currentColor" y="3" dy="0.71em"/></g><g class="tick" opacity="1" transform="translate(95.77272727272727,0)"><line stroke="#cccccc" y2="-255" stroke-width="0.3"/><text fill="currentColor" y="3" dy="0.71em"/></g><g class="tick" opacity="1" transform="translate(107.95454545454545,0)"><line stroke="#cccccc" y2="-255" stroke-width="0.3"/><text fill="currentColor" y="3" dy="0.71em"/></g><g class="tick" opacity="1" transform="translate(114.04545454545455,0)"><line stroke="#cccccc" y2="-255" stroke-width="0.3"/><text fill="currentColor" y="3" dy="0.71em"/></g><g class="tick" opacity="1" transform="translate(120.13636363636364,0)"><line stroke="#cccccc" y2="-255" stroke-width="0.3"/><text fill="currentColor" y="3" dy="0.71em"/></g><g class="tick" opacity="1" transform="translate(126.22727272727273,0)"><line stroke="#cccccc" y2="-255" stroke-width="0.3"/><text fill="currentColor" y="3" dy="0.71em"/></g><g class="tick" opacity="1" transform="translate(138.4090909090909,0)"><line stroke="#cccccc" y2="-255" stroke-width="0.3"/><text fill="currentColor" y="3" dy="0.71em"/></g><g class="tick" opacity="1" transform="translate(144.5,0)"><line stroke="#cccccc" y2="-255" stroke-width="0.3"/><text fill="currentColor" y="3" dy="0.71em"/></g><g class="tick" opacity="1" transform="translate(150.59090909090907,0)"><line stroke="#cccccc" y2="-255" stroke-width="0.3"/><text fill="currentColor" y="3" dy="0.71em"/></g><g class="tick" opacity="1" transform="translate(156.68181818181816,0)"><line stroke="#cccccc" y2="-255" stroke-width="0.3"/><text fill="currentColor" y="3" dy="0.71em"/></g><g class="tick" opacity="1" transform="translate(168.86363636363637,0)"><line stroke="#cccccc" y2="-255" stroke-width="0.3"/><text fill="currentColor" y="3" dy="0.71em"/></g><g class="tick" opacity="1" transform="translate(174.95454545454547,0)"><line stroke="#cccccc" y2="-255" stroke-width="0.3"/><text fill="currentColor" y="3" dy="0.71em"/></g><g class="tick" opacity="1" transform="translate(181.04545454545453,0)"><line stroke="#cccccc" y2="-255" stroke-width="0.3"/><text fill="currentColor" y="3" dy="0.71em"/></g><g class="tick" opacity="1" transform="translate(187.13636363636363,0)"><line stroke="#cccccc" y2="-255" stroke-width="0.3"/><text fill="currentColor" y="3" dy="0.71em"/></g><g class="tick" opacity="1" transform="translate(199.3181818181818,0)"><line stroke="#cccccc" y2="-255" stroke-width="0.3"/><text fill="currentColor" y="3" dy="0.71em"/></g><g class="tick" opacity="1" transform="translate(205.4090909090909,0)"><line stroke="#cccccc" y2="-255" stroke-width="0.3"/><text fill="currentColor" y="3" dy="0.71em"/></g><g class="tick" opacity="1" transform="translate(211.5,0)"><line stroke="#cccccc" y2="-255" stroke-width="0.3"/><text fill="currentColor" y="3" dy="0.71em"/></g><g class="tick" opacity="1" transform="translate(217.5909090909091,0)"><line stroke="#cccccc" y2="-255" stroke-width="0.3"/><text fill="currentColor" y="3" dy="0.71em"/></g><g class="tick" opacity="1" transform="translate(229.77272727272728,0)"><line stroke="#cccccc" y2="-255" stroke-width="0.3"/><text fill="currentColor" y="3" dy="0.71em"/></g><g class="tick" opacity="1" transform="translate(235.86363636363637,0)"><line stroke="#cccccc" y2="-255" stroke-width="0.3"/><text fill="currentColor" y="3" dy="0.71em"/></g><g class="tick" opacity="1" transform="translate(241.95454545454547,0)"><line stroke="#cccccc" y2="-255" stroke-width="0.3"/><text fill="currentColor" y="3" dy="0.71em"/></g><g class="tick" opacity="1" transform="translate(248.04545454545456,0)"><line stroke="#cccccc" y2="-255" stroke-width="0.3"/><text fill="currentColor" y="3" dy="0.71em"/></g><g class="tick" opacity="1" transform="translate(260.22727272727275,0)"><line stroke="#cccccc" y2="-255" stroke-width="0.3"/><text fill="currentColor" y="3" dy="0.71em"/></g><g class="tick" opacity="1" transform="translate(266.3181818181818,0)"><line stroke="#cccccc" y2="-255" stroke-width="0.3"/><text fill="currentColor" y="3" dy="0.71em"/></g><g class="tick" opacity="1" transform="translate(272.40909090909093,0)"><line stroke="#cccccc" y2="-255" stroke-width="0.3"/><text fill="currentColor" y="3" dy="0.71em"/></g><g class="tick" opacity="1" transform="translate(278.5,0)"><line stroke="#cccccc" y2="-255" stroke-width="0.3"/><text fill="currentColor" y="3" dy="0.71em"/></g><g class="tick" opacity="1" transform="translate(290.68181818181813,0)"><line stroke="#cccccc" y2="-255" stroke-width="0.3"/><text fill="currentColor" y="3" dy="0.71em"/></g><g class="tick" opacity="1" transform="translate(296.77272727272725,0)"><line stroke="#cccccc" y2="-255" stroke-width="0.3"/><text fill="currentColor" y="3" dy="0.71em"/></g><g class="tick" opacity="1" transform="translate(302.8636363636363,0)"><line stroke="#cccccc" y2="-255" stroke-width="0.3"/><text fill="currentColor" y="3" dy="0.71em"/></g><g class="tick" opacity="1" transform="translate(308.95454545454544,0)"><line stroke="#cccccc" y2="-255" stroke-width="0.3"/><text fill="currentColor" y="3" dy="0.71em"/></g><g class="tick" opacity="1" transform="translate(321.1363636363636,0)"><line stroke="#cccccc" y2="-255" stroke-width="0.3"/><text fill="currentColor" y="3" dy="0.71em"/></g><g class="tick" opacity="1" transform="translate(327.22727272727275,0)"><line stroke="#cccccc" y2="-255" stroke-width="0.3"/><text fill="currentColor" y="3" dy="0.71em"/></g><g class="tick" opacity="1" transform="translate(333.3181818181818,0)"><line stroke="#cccccc" y2="-255" stroke-width="0.3"/><text fill="currentColor" y="3" dy="0.71em"/></g><g class="tick" opacity="1" transform="translate(339.40909090909093,0)"><line stroke="#cccccc" y2="-255" stroke-width="0.3"/><text fill="currentColor" y="3" dy="0.71em"/></g></g><g class="grid minor-horizontal-grid" transform="translate(345,0)" fill="none" font-size="10" font-family="sans-serif" text-anchor="start"><path class="domain" stroke="currentColor" d="M-335,260.5H0.5V5.5H-335"/><g class="tick" opacity="1" transform="translate(0,252)"><line stroke="#cccccc" x2="-335" stroke-width="0.3"/><text fill="currentColor" x="3" dy="0.32em"/></g><g class="tick" opacity="1" transform="translate(0,235)"><line stroke="#cccccc" x2="-335" stroke-width="0.3"/><text fill="currentColor" x="3" dy="0.32em"/></g><g class="tick" opacity="1" transform="translate(0,218)"><line stroke="#cccccc" x2="-335" stroke-width="0.3"/><text fill="currentColor" x="3" dy="0.32em"/></g><g class="tick" opacity="1" transform="translate(0,200.99999999999997)"><line stroke="#cccccc" x2="-335" stroke-width="0.3"/><text fill="currentColor" x="3" dy="0.32em"/></g><g class="tick" opacity="1" transform="translate(0,184)"><line stroke="#cccccc" x2="-335" stroke-width="0.3"/><text fill="currentColor" x="3" dy="0.32em"/></g><g class="tick" opacity="1" transform="translate(0,167)"><line stroke="#cccccc" x2="-335" stroke-width="0.3"/><text fill="currentColor" x="3" dy="0.32em"/></g><g class="tick" opacity="1" transform="translate(0,150)"><line stroke="#cccccc" x2="-335" stroke-width="0.3"/><text fill="currentColor" x="3" dy="0.32em"/></g><g class="tick" opacity="1" transform="translate(0,133)"><line stroke="#cccccc" x2="-335" stroke-width="0.3"/><text fill="currentColor" x="3" dy="0.32em"/></g><g class="tick" opacity="1" transform="translate(0,115.99999999999997)"><line stroke="#cccccc" x2="-335" stroke-width="0.3"/><text fill="currentColor" x="3" dy="0.32em"/></g><g class="tick" opacity="1" transform="translate(0,99.00000000000001)"><line stroke="#cccccc" x2="-335" stroke-width="0.3"/><text fill="currentColor" x="3" dy="0.32em"/></g><g class="tick" opacity="1" transform="translate(0,81.99999999999999)"><line stroke="#cccccc" x2="-335" stroke-width="0.3"/><text fill="currentColor" x="3" dy="0.32em"/></g><g class="tick" opacity="1" transform="translate(0,64.99999999999999)"><line stroke="#cccccc" x2="-335" stroke-width="0.3"/><text fill="currentColor" x="3" dy="0.32em"/></g><g class="tick" opacity="1" transform="translate(0,47.999999999999986)"><line stroke="#cccccc" x2="-335" stroke-width="0.3"/><text fill="currentColor" x="3" dy="0.32em"/></g><g class="tick" opacity="1" transform="translate(0,30.999999999999993)"><line stroke="#cccccc" x2="-335" stroke-width="0.3"/><text fill="currentColor" x="3" dy="0.32em"/></g><g class="tick" opacity="1" transform="translate(0,13.99999999999997)"><line stroke="#cccccc" x2="-335" stroke-width="0.3"/><text fill="currentColor" x="3" dy="0.32em"/></g></g><path fill="none" stroke="#666666" stroke-width="0.5" d="M22.438,249.582L40.818,260"/><path fill="none" stroke="#666666" stroke-width="0.5" d="M66.357,240.266L101.364,260"/><path fill="none" stroke="#666666" stroke-width="0.5" d="M103.358,227.141L161.909,260"/><path fill="none" stroke="#666666" stroke-width="0.5" d="M136.128,211.746L222.455,260"/><path fill="none" stroke="#666666" stroke-width="0.5" d="M164.137,193.785L283.001,260"/><path fill="none" stroke="#666666" stroke-width="0.5" d="M188.263,173.749L343.547,260"/><path fill="none" stroke="#666666" stroke-width="0.5" d="M209.261,152.057L345,227.788"/><path fill="none" stroke="#666666" stroke-width="0.5" d="M227.737,129.04L345,194.783"/><path fill="none" stroke="#666666" stroke-width="0.5" d="M244.163,104.957L345,161.778"/><path fill="none" stroke="#666666" stroke-width="0.5" d="M258.904,80.004L345,128.774"/><path fill="none" stroke="#666666" stroke-width="0.5" d="M272.243,54.334L345,95.769"/><path fill="none" stroke="#666666" stroke-width="0.5" d="M284.404,28.066L345,62.765"/><path fill="none" stroke="#666666" stroke-width="0.5" d="M295.561,1.294L345,29.76"/></g><g clip-path="url(#plot-area-clip)"><path fill="none" stroke="#666666" stroke-width="0.5" d="M10,259.137C10,259.137,21.167,258.984,26.75,258.891C32.333,258.799,37.917,258.698,43.5,258.582C49.083,258.466,54.667,258.34,60.25,258.196C65.834,258.052,71.417,257.895,77,257.717C82.584,257.538,88.167,257.335,93.75,257.123C99.334,256.911,104.917,256.685,110.5,256.444C116.084,256.203,121.667,255.956,127.25,255.677C132.834,255.398,138.417,255.098,144,254.767C149.584,254.436,155.168,254.082,160.75,253.692C166.334,253.302,171.918,252.885,177.5,252.426C183.085,251.968,188.669,251.478,194.25,250.942C199.835,250.406,205.419,249.833,211,249.208C216.586,248.582,222.17,247.915,227.75,247.188C233.337,246.46,238.921,245.686,244.5,244.844C250.088,244,255.673,243.104,261.25,242.132C266.839,241.158,272.424,240.123,278,239.004C283.591,237.882,289.176,236.692,294.75,235.408C300.343,234.119,305.929,232.754,311.5,231.285C317.096,229.809,322.682,228.247,328.25,226.57C333.849,224.885,345,221.195,345,221.195"/><path fill="none" stroke="#666666" stroke-width="0.5" d="M10,258.275C10,258.275,21.167,257.967,26.75,257.782C32.334,257.597,37.917,257.395,43.5,257.164C49.084,256.932,54.667,256.68,60.25,256.391C65.834,256.102,71.418,255.789,77,255.431C82.585,255.073,88.168,254.668,93.75,254.243C99.334,253.818,104.918,253.366,110.5,252.883C116.085,252.4,121.669,251.907,127.25,251.347C132.836,250.787,138.42,250.187,144,249.524C149.587,248.861,155.171,248.15,160.75,247.369C166.338,246.586,171.923,245.749,177.5,244.831C183.089,243.911,188.674,242.928,194.25,241.853C199.841,240.775,205.427,239.625,211,238.371C216.594,237.113,222.18,235.772,227.75,234.314C233.347,232.849,238.934,231.29,244.5,229.6C250.101,227.901,255.688,226.094,261.25,224.142C266.855,222.176,272.444,220.088,278,217.841C283.611,215.572,289.2,213.165,294.75,210.586C300.368,207.974,305.958,205.209,311.5,202.256C317.126,199.258,322.716,196.088,328.25,192.715C333.885,189.281,345,181.816,345,181.816"/><path fill="none" stroke="#666666" stroke-width="0.5" d="M10,257.411C10,257.411,21.167,256.95,26.75,256.672C32.334,256.394,37.918,256.092,43.5,255.744C49.085,255.396,54.668,255.018,60.25,254.585C65.835,254.151,71.419,253.681,77,253.144C82.586,252.606,88.169,251.997,93.75,251.36C99.336,250.722,104.919,250.042,110.5,249.317C116.086,248.592,121.672,247.85,127.25,247.01C132.839,246.168,138.424,245.265,144,244.27C149.591,243.273,155.176,242.205,160.75,241.031C166.343,239.853,171.93,238.593,177.5,237.214C183.096,235.828,188.684,234.348,194.25,232.733C199.85,231.108,205.439,229.375,211,227.491C216.606,225.591,222.195,223.568,227.75,221.377C233.362,219.164,238.952,216.808,244.5,214.269C250.119,211.697,255.71,208.964,261.25,206.031C266.878,203.05,272.47,199.888,278,196.508C283.638,193.062,289.23,189.413,294.75,185.531C300.399,181.557,305.99,177.357,311.5,172.908C317.161,168.336,322.751,163.514,328.25,158.427C333.923,153.178,345,141.85,345,141.85"/><path fill="none" stroke="#666666" stroke-width="0.5" d="M10,256.548C10,256.548,21.168,255.933,26.75,255.562C32.335,255.191,37.919,254.788,43.5,254.324C49.085,253.86,54.67,253.355,60.25,252.778C65.837,252.199,71.421,251.571,77,250.854C82.588,250.136,88.171,249.324,93.75,248.473C99.338,247.622,104.922,246.714,110.5,245.747C116.088,244.778,121.676,243.787,127.25,242.666C132.843,241.541,138.429,240.334,144,239.006C149.596,237.673,155.183,236.244,160.75,234.678C166.35,233.102,171.939,231.416,177.5,229.575C183.106,227.72,188.695,225.737,194.25,223.582C199.862,221.404,205.453,219.08,211,216.565C216.621,214.017,222.212,211.302,227.75,208.377C233.38,205.403,238.972,202.24,244.5,198.849C250.141,195.389,255.733,191.715,261.25,187.795C266.903,183.778,272.495,179.523,278,175.004C283.666,170.352,289.257,165.436,294.75,160.239C300.43,154.866,306.018,149.2,311.5,143.236C317.193,137.042,322.779,130.528,328.25,123.696C333.955,116.572,345,101.284,345,101.284"/><path fill="none" stroke="#666666" stroke-width="0.5" d="M10,255.684C10,255.684,21.169,254.915,26.75,254.451C32.336,253.988,37.92,253.483,43.5,252.903C49.087,252.323,54.672,251.691,60.25,250.969C65.838,250.245,71.424,249.459,77,248.563C82.591,247.664,88.173,246.648,93.75,245.584C99.34,244.518,104.924,243.381,110.5,242.172C116.091,240.958,121.681,239.717,127.25,238.314C132.848,236.905,138.436,235.393,144,233.732C149.603,232.06,155.192,230.268,160.75,228.309C166.359,226.332,171.949,224.217,177.5,221.914C183.117,219.584,188.708,217.095,194.25,214.399C199.876,211.661,205.469,208.741,211,205.595C216.637,202.388,222.23,198.973,227.75,195.313C233.4,191.566,238.992,187.585,244.5,183.34C250.163,178.974,255.755,174.346,261.25,169.435C266.928,164.36,272.517,158.994,278,153.326C283.692,147.442,289.279,141.236,294.75,134.708C300.455,127.9,306.039,120.74,311.5,113.234C317.218,105.375,322.799,97.13,328.25,88.514C333.979,79.46,345,60.105,345,60.105"/><path fill="none" stroke="#666666" stroke-width="0.5" d="M10,254.82C10,254.82,21.17,253.896,26.75,253.34C32.336,252.784,37.921,252.178,43.5,251.482C49.088,250.784,54.674,250.026,60.25,249.159C65.841,248.289,71.427,247.345,77,246.27C82.594,245.19,88.176,243.969,93.75,242.691C99.343,241.41,104.928,240.044,110.5,238.591C116.094,237.133,121.687,235.639,127.25,233.956C132.854,232.26,138.443,230.441,144,228.447C149.61,226.434,155.201,224.277,160.75,221.925C166.369,219.543,171.961,216.995,177.5,214.231C183.129,211.422,188.722,208.421,194.25,205.184C199.891,201.88,205.484,198.358,211,194.579C216.655,190.704,222.248,186.583,227.75,182.185C233.419,177.653,239.011,172.845,244.5,167.74C250.184,162.454,255.774,156.859,261.25,150.948C266.949,144.796,272.536,138.303,278,131.472C283.713,124.33,289.296,116.813,294.75,108.933C300.476,100.659,306.056,91.975,311.5,82.898C317.238,73.332,322.813,63.316,328.25,52.873C333.997,41.834,345,18.298,345,18.298"/><path fill="none" stroke="#666666" stroke-width="0.5" d="M10,253.956C10,253.956,21.171,252.877,26.75,252.229C32.338,251.579,37.923,250.872,43.5,250.059C49.09,249.245,54.676,248.36,60.25,247.348C65.843,246.332,71.431,245.229,77,243.974C82.598,242.713,88.179,241.286,93.75,239.795C99.346,238.298,104.931,236.702,110.5,235.006C116.098,233.302,121.693,231.555,127.25,229.59C132.86,227.606,138.451,225.478,144,223.152C149.619,220.795,155.212,218.271,160.75,215.526C166.38,212.736,171.973,209.752,177.5,206.526C183.142,203.232,188.736,199.716,194.25,195.937C199.906,192.06,205.5,187.931,211,183.518C216.672,178.967,222.264,174.132,227.75,168.993C233.437,163.665,239.027,158.02,244.5,152.049C250.203,145.828,255.789,139.255,261.25,132.333C266.968,125.086,272.55,117.451,278,109.441C283.731,101.017,289.31,92.167,294.75,82.912C300.493,73.141,306.068,62.903,311.5,52.221C317.253,40.908,322.824,29.08,328.25,16.764C334.011,3.686,345,-24.151,345,-24.151"/><path fill="none" stroke="#666666" stroke-width="0.5" d="M10,253.091C10,253.091,21.172,251.858,26.75,251.117C32.339,250.373,37.925,249.565,43.5,248.636C49.092,247.705,54.679,246.692,60.25,245.535C65.846,244.373,71.435,243.111,77,241.677C82.602,240.233,88.183,238.601,93.75,236.897C99.35,235.182,104.935,233.356,110.5,231.417C116.102,229.464,121.7,227.463,127.25,225.217C132.868,222.944,138.46,220.505,144,217.846C149.628,215.143,155.222,212.249,160.75,209.111C166.391,205.909,171.985,202.487,177.5,198.798C183.155,195.015,188.749,190.98,194.25,186.658C199.921,182.202,205.514,177.46,211,172.411C216.688,167.175,222.278,161.62,227.75,155.735C233.454,149.6,239.041,143.11,244.5,136.267C250.22,129.097,255.802,121.534,261.25,113.59C266.984,105.229,272.562,96.436,278,87.23C283.746,77.501,289.321,67.297,294.75,56.64C300.506,45.343,306.077,33.519,311.5,21.197C317.265,8.097,322.833,-5.586,328.25,-19.823C334.022,-34.994,345,-67.257,345,-67.257"/><path fill="none" stroke="#666666" stroke-width="0.5" d="M10,252.227C10,252.227,21.174,250.839,26.75,250.004C32.34,249.167,37.927,248.257,43.5,247.212C49.094,246.164,54.682,245.023,60.25,243.722C65.849,242.413,71.44,240.991,77,239.378C82.607,237.751,88.187,235.912,93.75,233.994C99.354,232.062,104.94,230.005,110.5,227.822C116.107,225.621,121.708,223.364,127.25,220.837C132.876,218.272,138.469,215.521,144,212.529C149.638,209.478,155.233,206.212,160.75,202.681C166.403,199.064,171.997,195.2,177.5,191.048C183.169,186.771,188.762,182.214,194.25,177.347C199.936,172.305,205.527,166.947,211,161.257C216.703,155.33,222.29,149.048,227.75,142.412C233.469,135.461,239.053,128.117,244.5,120.392C250.234,112.26,255.813,103.695,261.25,94.717C266.997,85.226,272.572,75.257,278,64.836C283.758,53.781,289.329,42.198,294.75,30.115C300.517,17.26,306.085,3.819,311.5,-10.179C317.275,-25.108,322.84,-40.689,328.25,-56.898C334.031,-74.218,345,-111.036,345,-111.036"/><path fill="none" stroke="#666666" stroke-width="0.5" d="M10,251.362C10,251.362,21.175,249.818,26.75,248.891C32.342,247.961,37.93,246.948,43.5,245.787C49.096,244.621,54.686,243.353,60.25,241.907C65.853,240.451,71.445,238.868,77,237.076C82.612,235.266,88.191,233.221,93.75,231.089C99.358,228.939,104.944,226.649,110.5,224.222C116.111,221.772,121.715,219.258,127.25,216.45C132.884,213.592,138.478,210.527,144,207.202C149.648,203.8,155.243,200.16,160.75,196.236C166.414,192.2,172.008,187.891,177.5,183.275C183.181,178.501,188.774,173.416,194.25,168.004C199.949,162.371,205.538,156.39,211,150.058C216.716,143.43,222.301,136.416,227.75,129.023C233.482,121.245,239.063,113.039,244.5,104.423C250.246,95.318,255.822,85.739,261.25,75.712C267.008,65.074,272.58,53.913,278,42.258C283.768,29.854,289.336,16.868,294.75,3.332C300.526,-11.111,306.091,-26.202,311.5,-41.913C317.283,-58.713,322.846,-76.239,328.25,-94.47C334.039,-113.997,345,-155.502,345,-155.502"/></g><g class="x-axis" transform="translate(0,260)" fill="none" font-size="10" font-family="sans-serif" text-anchor="middle"><path class="domain" stroke="currentColor" d="M10.5,6V0.5H345.5V6"/><g class="tick" opacity="1" transform="translate(10.5,0)"><line stroke="currentColor" y2="6"/><text fill="currentColor" y="9" dy="0.71em" style="font-size: 8px;">−15</text></g><g class="tick" opacity="1" transform="translate(40.95454545454545,0)"><line stroke="currentColor" y2="6"/><text fill="currentColor" y="9" dy="0.71em" style="font-size: 8px;">−10</text></g><g class="tick" opacity="1" transform="translate(71.4090909090909,0)"><line stroke="currentColor" y2="6"/><text fill="currentColor" y="9" dy="0.71em" style="font-size: 8px;">−5</text></g><g class="tick" opacity="1" transform="translate(101.86363636363635,0)"><line stroke="currentColor" y2="6"/><text fill="currentColor" y="9" dy="0.71em" style="font-size: 8px;">0</text></g><g class="tick" opacity="1" transform="translate(132.3181818181818,0)"><line stroke="currentColor" y2="6"/><text fill="currentColor" y="9" dy="0.71em" style="font-size: 8px;">5</text></g><g class="tick" opacity="1" transform="translate(162.77272727272728,0)"><line stroke="currentColor" y2="6"/><text fill="currentColor" y="9" dy="0.71em" style="font-size: 8px;">10</text></g><g class="tick" opacity="1" transform="translate(193.2272727272727,0)"><line stroke="currentColor" y2="6"/><text fill="currentColor" y="9" dy="0.71em" style="font-size: 8px;">15</text></g><g class="tick" opacity="1" transform="translate(223.68181818181816,0)"><line stroke="currentColor" y2="6"/><text fill="currentColor" y="9" dy="0.71em" style="font-size: 8px;">20</text></g><g class="tick" opacity="1" transform="translate(254.13636363636363,0)"><line stroke="currentColor" y2="6"/><text fill="currentColor" y="9" dy="0.71em" style="font-size: 8px;">25</text></g><g class="tick" opacity="1" transform="translate(284.5909090909091,0)"><line stroke="currentColor" y2="6"/><text fill="currentColor" y="9" dy="0.71em" style="font-size: 8px;">30</text></g><g class="tick" opacity="1" transform="translate(315.04545454545456,0)"><line stroke="currentColor" y2="6"/><text fill="currentColor" y="9" dy="0.71em" style="font-size: 8px;">35</text></g><g class="tick" opacity="1" transform="translate(345.5,0)"><line stroke="currentColor" y2="6"/><text fill="currentColor" y="9" dy="0.71em" style="font-size: 8px;">40</text></g><text x="200" y="27" fill="black" font-size="8px">Dry-bulb temperature [°C]</text></g><g class="y-axis" transform="translate(345,0)" fill="none" font-size="10" font-family="sans-serif" text-anchor="start"><path class="domain" stroke="currentColor" d="M6,260.5H0.5V5.5H6"/><g class="tick" opacity="1" transform="translate(0,260.5)"><line stroke="currentColor" x2="6"/><text fill="currentColor" x="9" dy="0.32em" style="font-size: 8px;">0.000</text></g><g class="tick" opacity="1" transform="translate(0,243.5)"><line stroke="currentColor" x2="6"/><text fill="currentColor" x="9" dy="0.32em" style="font-size: 8px;">0.002</text></g><g class="tick" opacity="1" transform="translate(0,226.5)"><line stroke="currentColor" x2="6"/><text fill="currentColor" x="9" dy="0.32em" style="font-size: 8px;">0.004</text></g><g class="tick" opacity="1" transform="translate(0,209.5)"><line stroke="currentColor" x2="6"/><text fill="currentColor" x="9" dy="0.32em" style="font-size: 8px;">0.006</text></g><g class="tick" opacity="1" transform="translate(0,192.50000000000003)"><line stroke="currentColor" x2="6"/><text fill="currentColor" x="9" dy="0.32em" style="font-size: 8px;">0.008</text></g><g class="tick" opacity="1" transform="translate(0,175.49999999999997)"><line stroke="currentColor" x2="6"/><text fill="currentColor" x="9" dy="0.32em" style="font-size: 8px;">0.010</text></g><g class="tick" opacity="1" transform="translate(0,158.5)"><line stroke="currentColor" x2="6"/><text fill="currentColor" x="9" dy="0.32em" style="font-size: 8px;">0.012</text></g><g class="tick" opacity="1" transform="translate(0,141.5)"><line stroke="currentColor" x2="6"/><text fill="currentColor" x="9" dy="0.32em" style="font-size: 8px;">0.014</text></g><g class="tick" opacity="1" transform="translate(0,124.5)"><line stroke="currentColor" x2="6"/><text fill="currentColor" x="9" dy="0.32em" style="font-size: 8px;">0.016</text></g><g class="tick" opacity="1" transform="translate(0,107.5)"><line stroke="currentColor" x2="6"/><text fill="currentColor" x="9" dy="0.32em" style="font-size: 8px;">0.018</text></g><g class="tick" opacity="1" transform="translate(0,90.49999999999997)"><line stroke="currentColor" x2="6"/><text fill="currentColor" x="9" dy="0.32em" style="font-size: 8px;">0.020</text></g><g class="tick" opacity="1" transform="translate(0,73.50000000000001)"><line stroke="currentColor" x2="6"/><text fill="currentColor" x="9" dy="0.32em" style="font-size: 8px;">0.022</text></g><g class="tick" opacity="1" transform="translate(0,56.499999999999986)"><line stroke="currentColor" x2="6"/><text fill="currentColor" x="9" dy="0.32em" style="font-size: 8px;">0.024</text></g><g class="tick" opacity="1" transform="translate(0,39.49999999999999)"><line stroke="currentColor" x2="6"/><text fill="currentColor" x="9" dy="0.32em" style="font-size: 8px;">0.026</text></g><g class="tick" opacity="1" transform="translate(0,22.499999999999996)"><line stroke="currentColor" x2="6"/><text fill="currentColor" x="9" dy="0.32em" style="font-size: 8px;">0.028</text></g><g class="tick" opacity="1" transform="translate(0,5.5)"><line stroke="currentColor" x2="6"/><text fill="currentColor" x="9" dy="0.32em" style="font-size: 8px;">0.030</text></g><text transform="rotate(-90)" y="45" x="-180" fill="black" font-size="8px">Humidity ratio [kg/kg]</text></g><text x="340" y="221.19475124373446" fill="#666666" font-size="6px" text-anchor="end">10%</text><text x="340" y="181.81559791547394" fill="#666666" font-size="6px" text-anchor="end">20%</text><text x="340" y="141.8497136513367" fill="#666666" font-size="6px" text-anchor="end">30%</text><text x="340" y="101.28388700504154" fill="#666666" font-size="6px" text-anchor="end">40%</text><text x="340" y="60.10450688709036" fill="#666666" font-size="6px" text-anchor="end">50%</text><text x="340" y="18.29754733822346" fill="#666666" font-size="6px" text-anchor="end">60%</text><text x="340" y="-24.151448398633576" fill="#666666" font-size="6px" text-anchor="end">70%</text><text x="340" y="-67.25738454593196" fill="#666666" font-size="6px" text-anchor="end">80%</text><text x="340" y="-111.03563023893612" fill="#666666" font-size="6px" text-anchor="end">90%</text><text x="340" y="-155.50203779594375" fill="#666666" font-size="6px" text-anchor="end">100%</text><text x="7.437955410344806" y="245.5823696306158" fill="#666666" font-size="6px" text-anchor="start">-10 kJ/kg</text><text x="51.357492377547615" y="236.2655221505135" fill="#666666" font-size="6px" text-anchor="start">0 kJ/kg</text><text x="88.35790149732276" y="223.1410439150016" fill="#666666" font-size="6px" text-anchor="start">10 kJ/kg</text><text x="121.12796027565213" y="207.74639875226606" fill="#666666" font-size="6px" text-anchor="start">20 kJ/kg</text><text x="149.13745040634262" y="189.7853554068801" fill="#666666" font-size="6px" text-anchor="start">30 kJ/kg</text><text x="173.2632458561835" y="169.74921749584067" fill="#666666" font-size="6px" text-anchor="start">40 kJ/kg</text><text x="194.26133121740153" y="148.05666604280253" fill="#666666" font-size="6px" text-anchor="start">50 kJ/kg</text><text x="212.7373605054354" y="125.04014222593901" fill="#666666" font-size="6px" text-anchor="start">60 kJ/kg</text><text x="229.1631364133363" y="100.95664714270654" fill="#666666" font-size="6px" text-anchor="start">70 kJ/kg</text><text x="243.9038219147074" y="76.0037261400113" fill="#666666" font-size="6px" text-anchor="start">80 kJ/kg</text><text x="257.24316069550815" y="50.333894863419" fill="#666666" font-size="6px" text-anchor="start">90 kJ/kg</text><text x="269.40358456514593" y="24.065984583010906" fill="#666666" font-size="6px" text-anchor="start">100 kJ/kg</text><text x="280.5613691842045" y="-2.7063843017742713" fill="#666666" font-size="6px" text-anchor="start">110 kJ/kg</text><circle cx="125.72727272727273" cy="229.8049022543317" r="3" fill="white" stroke="black" stroke-width="2" class="state-point"/><circle cx="220.91656726694418" cy="189.89054217443208" r="3" fill="white" stroke="black" stroke-width="2" class="state-point"/><text class="state-label" x="129.22727272727275" y="226.3049022543317" font-size="7px" fill="black">0</text><text class="state-label" x="224.41656726694418" y="186.39054217443208" font-size="7px" fill="black">1</text></svg>